<?xml version="1.0" encoding="UTF-8" standalone="no"?>
<!-- Created with Inkscape (http://www.inkscape.org/) -->

<svg
   xmlns:dc="http://purl.org/dc/elements/1.1/"
   xmlns:cc="http://creativecommons.org/ns#"
   xmlns:rdf="http://www.w3.org/1999/02/22-rdf-syntax-ns#"
   xmlns:svg="http://www.w3.org/2000/svg"
   xmlns="http://www.w3.org/2000/svg"
   xmlns:sodipodi="http://sodipodi.sourceforge.net/DTD/sodipodi-0.dtd"
   xmlns:inkscape="http://www.inkscape.org/namespaces/inkscape"
   viewBox="0 0 50 50"
   style="fill:#95f6fd"
   version="1.1"
   id="svg848"
   inkscape:version="0.92.5 (2060ec1f9f, 2020-04-08)"
   sodipodi:docname="intake-air-temp.svg">
  <defs
     id="defs842" />
  <sodipodi:namedview
     id="base"
     pagecolor="#ffffff"
     bordercolor="#666666"
     borderopacity="1.0"
     inkscape:pageopacity="0.0"
     inkscape:pageshadow="2"
     inkscape:zoom="4"
     inkscape:cx="75.748345"
     inkscape:cy="92.159302"
     inkscape:document-units="mm"
     inkscape:current-layer="layer1"
     showgrid="false"
     inkscape:window-x="54"
     inkscape:window-y="-8"
     inkscape:window-maximized="1" />
  <metadata
     id="metadata845">
    <rdf:RDF>
      <cc:Work
         rdf:about="">
        <dc:format>image/svg+xml</dc:format>
        <dc:type
           rdf:resource="http://purl.org/dc/dcmitype/StillImage" />
        <dc:title></dc:title>
      </cc:Work>
    </rdf:RDF>
  </metadata>
  <g
     inkscape:label="Layer 1"
     inkscape:groupmode="layer"
     id="layer1"
     transform="translate(0,-247)">
    <path
       id="path10"
       style="stroke-width:0.46010441"
       d="m 37.740061,279.22316 -2.851262,-2.85127 v 2.20806 c -0.568245,0.0824 -0.951499,0.25951 -1.290599,0.43249 -0.03582,0.0179 -0.07217,0.0363 -0.106773,0.0543 -0.41179,0.21259 -0.736631,0.38005 -1.454846,0.38005 -0.718233,0 -1.043526,-0.16746 -1.454863,-0.38005 -0.126946,-0.0657 -0.259038,-0.13303 -0.403043,-0.19782 -0.349222,-0.15651 -0.773445,-0.29127 -1.380313,-0.32578 -0.09756,-0.005 -0.196922,-0.0104 -0.3046,-0.0104 -0.901329,0 -1.433213,0.20798 -1.871696,0.42469 -0.07408,0.0364 -0.1459,0.0732 -0.215789,0.10904 -0.351065,0.18174 -0.641387,0.32896 -1.164524,0.36901 -0.08973,0.007 -0.184506,0.0104 -0.28987,0.0104 -0.03408,0 -0.06347,-0.002 -0.09564,-0.003 -0.649212,-0.0157 -0.96668,-0.17529 -1.358698,-0.37728 -0.484948,-0.2503 -1.034309,-0.53372 -2.087485,-0.53372 v 1.38029 c 0.717762,0 1.043056,0.16747 1.454393,0.38006 0.469298,0.24203 1.003477,0.51301 1.99179,0.53051 0.03269,4.7e-4 0.06156,0.003 0.09564,0.003 0.1026,0 0.19647,-0.005 0.28987,-0.0104 0.606416,-0.0327 1.031561,-0.1652 1.380313,-0.32021 0.149031,-0.0663 0.286636,-0.13564 0.41732,-0.2034 0.41179,-0.21253 0.736613,-0.38001 1.454376,-0.38001 0.111295,0 0.210277,0.005 0.3046,0.0122 0.513937,0.0414 0.802416,0.18725 1.150264,0.36713 0.07408,0.0383 0.151464,0.0772 0.230049,0.11599 0.43617,0.2144 0.96621,0.41777 1.857906,0.41777 0.70119,0 1.177392,-0.12607 1.561584,-0.28434 0.192783,-0.0791 0.364403,-0.16572 0.526371,-0.24938 0.250291,-0.12921 0.46975,-0.2411 0.764229,-0.31012 v 2.09119 z m 0,-7.22317 -2.851262,-2.85128 v 2.20807 c -0.568245,0.0824 -0.951499,0.25949 -1.290599,0.43248 -0.03582,0.0179 -0.07217,0.0363 -0.106773,0.0543 -0.41179,0.21255 -0.736631,0.38002 -1.454846,0.38002 -0.718233,0 -1.043526,-0.16747 -1.454863,-0.38002 -0.126946,-0.0657 -0.259038,-0.13303 -0.403043,-0.19786 -0.349222,-0.15634 -0.773445,-0.29125 -1.380313,-0.32575 -0.09756,-0.005 -0.196922,-0.0104 -0.3046,-0.0104 -0.901329,0 -1.433213,0.20796 -1.871696,0.42467 -0.07408,0.0363 -0.1459,0.0732 -0.215789,0.10904 -0.351065,0.18174 -0.641387,0.32896 -1.164524,0.36899 -0.08973,0.007 -0.184506,0.0104 -0.28987,0.0104 -0.03408,0 -0.06347,-0.002 -0.09564,-0.003 -0.649212,-0.0156 -0.96668,-0.17529 -1.358698,-0.37727 -0.484948,-0.25031 -1.034309,-0.53373 -2.087485,-0.53373 v 1.38031 c 0.717762,0 1.043056,0.16747 1.454393,0.38004 0.469298,0.24203 1.003477,0.51303 1.99179,0.53051 0.03269,4.5e-4 0.06156,0.003 0.09564,0.003 0.1026,0 0.19647,-0.005 0.28987,-0.0104 0.606416,-0.0327 1.031561,-0.1652 1.380313,-0.32023 0.149031,-0.0663 0.286636,-0.13581 0.41732,-0.20337 0.41179,-0.21258 0.736613,-0.38006 1.454376,-0.38006 0.111295,0 0.210277,0.005 0.3046,0.0122 0.513937,0.0414 0.802416,0.18727 1.150264,0.36716 0.07408,0.0383 0.151464,0.0772 0.230049,0.11599 0.43617,0.21442 0.96621,0.41779 1.857906,0.41779 0.70119,0 1.177392,-0.12607 1.561584,-0.28435 0.192783,-0.0791 0.364403,-0.16573 0.526371,-0.24937 0.250291,-0.12938 0.46975,-0.2411 0.764229,-0.31012 v 2.09118 z m -8.941665,-7.90412 c -0.09756,-0.005 -0.196939,-0.0104 -0.304599,-0.0104 -0.901347,0 -1.43323,0.20794 -1.871696,0.42512 -0.07408,0.0363 -0.1459,0.0732 -0.21579,0.10904 -0.351064,0.18176 -0.641387,0.32943 -1.164523,0.36948 -0.08973,0.007 -0.184506,0.0104 -0.28987,0.0104 -0.03408,0 -0.06347,-0.002 -0.09564,-0.003 -0.649213,-0.0157 -0.96668,-0.17528 -1.358698,-0.37774 -0.484948,-0.25029 -1.034778,-0.53416 -2.087486,-0.53416 v 1.38032 c 0.717763,0 1.042587,0.16798 1.453925,0.38048 0.469315,0.24203 1.003494,0.51347 1.992259,0.53098 0.03269,4.6e-4 0.06156,0.003 0.09564,0.003 0.102599,0 0.196469,-0.005 0.28987,-0.0104 0.606416,-0.033 1.031544,-0.16521 1.380313,-0.32067 0.149552,-0.0663 0.286636,-0.13581 0.417772,-0.20339 0.411338,-0.21256 0.736631,-0.38051 1.454394,-0.38051 0.111294,0 0.210259,0.005 0.304582,0.0122 0.513485,0.0414 0.802416,0.1877 1.150263,0.36762 0.0746,0.0383 0.151465,0.0772 0.23005,0.11599 0.436187,0.21439 0.966228,0.41822 1.857906,0.41822 0.70119,0 1.177409,-0.1266 1.561584,-0.28436 0.192783,-0.0796 0.364403,-0.16607 0.526371,-0.24982 0.250291,-0.12938 0.469767,-0.24156 0.764228,-0.31011 v 2.09072 l 2.851732,-2.85126 -2.851732,-2.84944 v 2.20621 c -0.568228,0.0824 -0.951498,0.25949 -1.290599,0.4325 -0.03582,0.0184 -0.07217,0.0369 -0.107121,0.0548 -0.41179,0.21259 -0.736613,0.3805 -1.454376,0.3805 -0.717763,0 -1.043056,-0.16798 -1.454863,-0.3805 -0.126946,-0.0657 -0.259491,-0.13338 -0.403043,-0.19783 -0.349222,-0.15686 -0.773445,-0.2917 -1.380783,-0.32667 z m -12.982318,-7.82409 v 31.45551 l 10.806023,-1.71987 v -3.94266 h -1.380313 v 2.7648 l -8.045396,1.28001 v -28.22006 l 8.045396,1.28093 v 2.76477 h 1.380313 v -3.94265 z m -2.176747,-2.98976 15.159065,2.93364 v 5.71955 h 1.380314 v -6.85785 l -17.919693,-3.46827 v 40.78182 l 17.919693,-3.46919 v -6.85696 h -1.380314 v 5.71866 l -15.159065,2.93452 z"
       inkscape:connector-curvature="0" />
  </g>
</svg>
