<svg xmlns:inkscape="http://www.inkscape.org/namespaces/inkscape" xmlns:sodipodi="http://sodipodi.sourceforge.net/DTD/sodipodi-0.dtd" xmlns="http://www.w3.org/2000/svg" xmlns:svg="http://www.w3.org/2000/svg" viewBox="0 0 8.46667 10.5833375" style="fill:#95f6fd" version="1.1" x="0px" y="0px"><g transform="translate(-139.23277,-112.8048)"><path style="color:#000000;" d="m 141.13867,113.86328 c -0.46517,-3.5e-4 -0.84839,0.38249 -0.84765,0.84766 -3.7e-4,0.46491 0.38274,0.84605 0.84765,0.8457 h 0.56836 c 0.0703,0 0.18245,0.0151 0.27344,0.043 0.091,0.0279 0.15415,0.0773 0.15625,0.0801 0.0464,0.061 0.0925,0.13385 0.14258,0.20703 0.0168,0.0282 0.0334,0.0584 0.0508,0.0898 -5.1e-4,-9.2e-4 0.0172,0.13142 0.0195,0.1211 -0.0769,0.34231 -0.26944,0.8384 -0.52734,1.27734 -0.3368,0.5732 -0.82929,1.09722 -1.10743,1.25781 -0.40289,0.23212 -0.54336,0.75571 -0.31054,1.15821 0.23198,0.40201 0.75419,0.53997 1.15625,0.30859 0.72474,-0.41843 1.28417,-1.12091 1.72265,-1.86719 0.0175,-0.0297 0.0337,-0.06 0.0508,-0.0898 0.16717,0.34397 0.33526,0.69258 0.56836,1.0039 0.41645,0.55623 1.05896,1.06641 1.89258,1.06641 0.46445,-5.2e-4 0.84643,-0.38302 0.8457,-0.84766 -0.001,-0.46338 -0.38251,-0.84322 -0.8457,-0.84375 h -0.002 c -0.0906,-2.4e-4 -0.14805,-0.0172 -0.22852,-0.0703 -0.0811,-0.0535 -0.18451,-0.15459 -0.30859,-0.32031 -0.23929,-0.3196 -0.49603,-0.85573 -0.73828,-1.42383 -0.16003,-0.37526 -0.3165,-0.76556 -0.4961,-1.14062 l -0.002,-0.002 c -0.0143,-0.0364 -0.0314,-0.0711 -0.0508,-0.10547 l -0.01,-0.0176 c -0.0747,-0.14995 -0.15314,-0.29811 -0.23828,-0.43946 -0.15872,-0.26356 -0.3445,-0.52448 -0.60547,-0.74218 -0.26829,-0.22382 -0.63174,-0.39649 -1.04492,-0.39649 z m 0,0.5293 h 0.93164 c 0.26212,0 0.51857,0.11622 0.70703,0.27344 0.19581,0.16335 0.34628,0.37033 0.49024,0.60937 0.0793,0.13165 0.15416,0.2718 0.22656,0.41797 a 0.26460996,0.26460996 0 0 0 0.01,0.0176 c 0.009,0.0149 0.017,0.0302 0.0234,0.0469 a 0.26460996,0.26460996 0 0 0 0.008,0.0195 c 0.17268,0.35876 0.33076,0.74903 0.49609,1.13672 0.24703,0.5793 0.50361,1.13824 0.80078,1.53516 0.14416,0.19254 0.28105,0.33885 0.43945,0.44336 0.15841,0.10451 0.34292,0.1582 0.52344,0.1582 0.17823,-1.4e-4 0.31599,0.13819 0.31641,0.31641 2.8e-4,0.17875 -0.13766,0.31654 -0.31641,0.3164 -0.61663,0 -1.11444,-0.38028 -1.46875,-0.85351 -0.25824,-0.3449 -0.46995,-0.74982 -0.66015,-1.16797 -0.0468,-0.10336 -0.14877,-0.23397 -0.32422,-0.23828 -0.17546,-0.004 -0.28344,0.11881 -0.33594,0.21875 -0.0565,0.10753 -0.11711,0.21388 -0.17969,0.32031 -0.41178,0.70084 -0.9278,1.33242 -1.5293,1.67969 -0.15458,0.0895 -0.34432,0.0375 -0.43359,-0.11719 -0.0895,-0.15466 -0.0396,-0.34441 0.11524,-0.43359 0.44268,-0.25559 0.9265,-0.81224 1.30078,-1.44922 0.2867,-0.48796 0.4926,-1.01406 0.58593,-1.42969 0.0423,-0.18824 0.0166,-0.33362 -0.0723,-0.49414 -0.0224,-0.0404 -0.0456,-0.0793 -0.0684,-0.11719 a 0.26460996,0.26460996 0 0 0 -0.008,-0.0137 c -0.0394,-0.0575 -0.0914,-0.14068 -0.15821,-0.22851 -0.11752,-0.15446 -0.27443,-0.21986 -0.42382,-0.26563 -0.1494,-0.0458 -0.29714,-0.0644 -0.42774,-0.0644 h -0.56836 c -0.17865,1.3e-4 -0.3185,-0.13972 -0.31836,-0.31836 -2.8e-4,-0.17874 0.13961,-0.3185 0.31836,-0.31836 z" fill="#000000" stroke-linecap="round" stroke-linejoin="round"/></g><text x="0" y="23.46667" fill="#000000" font-size="5px" font-weight="bold" font-family="'Helvetica Neue', Helvetica, Arial-Unicode, Arial, Sans-serif">Created by Meko</text><text x="0" y="28.46667" fill="#000000" font-size="5px" font-weight="bold" font-family="'Helvetica Neue', Helvetica, Arial-Unicode, Arial, Sans-serif">from the Noun Project</text></svg>