<?xml version="1.0" encoding="UTF-8" standalone="no"?>
<!-- Created with Inkscape (http://www.inkscape.org/) -->

<svg
   xmlns:dc="http://purl.org/dc/elements/1.1/"
   xmlns:cc="http://creativecommons.org/ns#"
   xmlns:rdf="http://www.w3.org/1999/02/22-rdf-syntax-ns#"
   xmlns:svg="http://www.w3.org/2000/svg"
   xmlns="http://www.w3.org/2000/svg"
   xmlns:sodipodi="http://sodipodi.sourceforge.net/DTD/sodipodi-0.dtd"
   xmlns:inkscape="http://www.inkscape.org/namespaces/inkscape"
   viewBox="0 0 50 50"
   style="fill:#95f6fd"
   version="1.1"
   id="svg844"
   inkscape:version="0.92.5 (2060ec1f9f, 2020-04-08)"
   sodipodi:docname="oil-temp.svg">
  <defs
     id="defs838" />
  <sodipodi:namedview
     id="base"
     pagecolor="#ffffff"
     bordercolor="#666666"
     borderopacity="1.0"
     inkscape:pageopacity="0.0"
     inkscape:pageshadow="2"
     inkscape:zoom="2.8"
     inkscape:cx="57.202922"
     inkscape:cy="86.696197"
     inkscape:document-units="mm"
     inkscape:current-layer="layer1"
     showgrid="false"
     inkscape:window-width="2498"
     inkscape:window-height="1057"
     inkscape:window-x="54"
     inkscape:window-y="-8"
     inkscape:window-maximized="1" />
  <metadata
     id="metadata841">
    <rdf:RDF>
      <cc:Work
         rdf:about="">
        <dc:format>image/svg+xml</dc:format>
        <dc:type
           rdf:resource="http://purl.org/dc/dcmitype/StillImage" />
        <dc:title></dc:title>
      </cc:Work>
    </rdf:RDF>
  </metadata>
  <g
     inkscape:label="Layer 1"
     inkscape:groupmode="layer"
     id="layer1"
     transform="translate(0,-247)">
    <path
       id="path8"
       style="stroke-width:0.36213335"
       d="m 42.430822,261.49857 a 0.60476274,0.60476274 0 0 1 0.800315,0.44905 l 0.239008,1.18779 a 0.72426675,0.72426675 0 0 0 1.419563,-0.28245 L 44.6507,261.66154 a 2.0532962,2.0532962 0 0 0 -2.716,-1.52459 l -14.568625,5.33061 a 1.5426882,1.5426882 0 0 1 -1.227633,-0.0688 c -0.890848,-0.44905 -0.818421,-1.31454 -1.180554,-2.25247 a 0.72426675,0.72426675 0 0 0 -0.695296,-0.51423 h -4.707735 v -2.89707 h 2.172801 a 0.72426675,0.72426675 0 0 0 0,-1.44853 h -5.794134 a 0.72426675,0.72426675 0 0 0 0,1.44853 h 2.1728 v 2.89707 h -6.518401 v -1.32179 a 0.72426675,0.72426675 0 0 0 -0.416453,-0.65545 l -6.4278674,-3.02379 a 0.72426675,0.72426675 0 0 0 -1.00311,0.4563 l -1.513718,5.29439 a 0.72426675,0.72426675 0 0 0 0.420075,0.86912 l 7.4925394,3.08899 v 7.6048 a 0.72426675,0.72426675 0 0 0 0.724267,0.72427 h 5.069868 a 0.72426721,0.72426721 0 0 0 0,-1.44853 h -4.345601 v -10.13974 h 12.135091 c 0.173824,0.36214 0.264356,1.86137 1.767209,2.61461 a 3.0201923,3.0201923 0 0 0 2.371974,0.134 l 10.270102,-3.75894 -8.437706,11.15009 h -5.432001 a 0.72426721,0.72426721 0 0 0 0,1.44853 h 5.794134 a 0.72426675,0.72426675 0 0 0 0.575792,-0.28609 L 40.645505,262.1541 Z m -38.6323884,1.65858 1.0864,-3.8531 5.2545554,2.46612 v 4.00882 z m 40.9391784,4.08124 a 0.75323741,0.75323741 0 0 0 -1.115371,0 c -0.510609,0.61201 -3.063648,3.75895 -3.063648,5.53339 a 3.6213353,3.6213353 0 0 0 7.24267,0 c 0,-1.77444 -2.534943,-4.92138 -3.063651,-5.53339 z m -0.557686,7.70619 a 2.1728002,2.1728002 0 0 1 -2.1728,-2.1728 c 0,-0.77858 1.137099,-2.55665 2.1728,-3.90741 1.035698,1.35076 2.172795,3.12883 2.172795,3.90741 a 2.1728002,2.1728002 0 0 1 -2.172795,2.1728 z m -22.090134,-4.70773 a 0.72426675,0.72426675 0 0 0 0,-1.44853 h -2.563904 v -1.31454 a 0.7242675,0.7242675 0 1 0 -1.448535,0 v 11.86711 a 3.5851204,3.5851204 0 1 0 1.448535,0 v -1.86137 h 2.563904 a 0.72427131,0.72427131 0 0 0 0,-1.44854 h -2.563904 v -2.1728 h 2.563904 a 0.72426675,0.72426675 0 0 0 0,-1.44853 h -2.563904 v -2.1728 z m -1.151584,12.61311 a 2.136587,2.136587 0 1 1 -2.136588,-2.13658 2.1402082,2.1402082 0 0 1 2.136588,2.13658 z"
       inkscape:connector-curvature="0" />
  </g>
</svg>
