<svg xmlns="http://www.w3.org/2000/svg" xmlns:xlink="http://www.w3.org/1999/xlink" version="1.1" x="0px" y="0px" viewBox="0 0 100 125" style="enable-background:new 0 0 100 100;" xml:space="preserve" fill="#f08800" ><g><path d="M89.3,39.4c0.2,0.1,0.6,0.2,0.9,0.4c0.4,0.4,0.6,1,0.6,1.9c0,1.4,1.1,2.5,2.5,2.5s2.5-1.1,2.5-2.5c0-2.9-1.1-4.6-2.1-5.5   c-1.9-1.9-4.4-1.9-4.7-1.9c-0.3,0-0.5,0.1-0.8,0.1l-14,4.9c-0.1,0-0.2,0.1-0.2,0.1l-17.7,6.2c-1,0.2-2.2,0.4-2.8,0.3   c-0.5-0.8-1.2-2.3-1.6-3.2c-0.4-0.9-1.3-1.5-2.3-1.5h-9.6V36h4.3c1.4,0,2.5-1.1,2.5-2.5S45.5,31,44.1,31H30.6   c-1.4,0-2.5,1.1-2.5,2.5s1.1,2.5,2.5,2.5h4.3v5.2h-12v-2.6c0-1-0.6-1.9-1.5-2.3L6.8,30c-0.7-0.3-1.4-0.3-2.1,0   c-0.7,0.3-1.1,0.9-1.3,1.6L0.1,43.1c-0.4,1.2,0.3,2.5,1.4,3l16.3,6.8v14.8c0,1.4,1.1,2.5,2.5,2.5H62c0.8,0,1.5-0.4,2-1L84.7,41   L89.3,39.4z M5.5,42.3l1.9-6.6l10.5,4.5v3.5v3.7L5.5,42.3z M60.7,65.2H22.9v-14v-5h25c0.5,1.1,1.2,2.4,2,3.3c1.8,2.1,5.6,1.5,7.7,1   c0.1,0,0.1,0,0.2-0.1l18.6-6.5L60.7,65.2z"/><path d="M95.3,49.5c-0.4-0.8-1.2-1.2-2.1-1.2c-0.9,0-1.7,0.4-2.2,1.2c-1.2,1.9-7.1,11.8-4.2,17.2c0.8,1.4,2.5,3.2,6.3,3.2   c3.5,0,5.1-1.6,5.9-3C102.1,61.5,96.5,51.4,95.3,49.5z M94.8,64.2c-0.2,0.3-0.7,0.5-1.6,0.5c-0.7,0-1.6-0.1-1.9-0.6   c-0.7-1.3,0.2-4.6,1.8-8C94.6,59.5,95.5,63,94.8,64.2z"/></g></svg>