<?xml version="1.0" encoding="UTF-8" standalone="no"?>
<svg
   xmlns:dc="http://purl.org/dc/elements/1.1/"
   xmlns:cc="http://creativecommons.org/ns#"
   xmlns:rdf="http://www.w3.org/1999/02/22-rdf-syntax-ns#"
   xmlns:svg="http://www.w3.org/2000/svg"
   xmlns="http://www.w3.org/2000/svg"
   xmlns:sodipodi="http://sodipodi.sourceforge.net/DTD/sodipodi-0.dtd"
   xmlns:inkscape="http://www.inkscape.org/namespaces/inkscape"
   version="1.1"
   x="0px"
   y="0px"
   viewBox="0 0 50 50"
   style="fill:#95f6fd"
   xml:space="preserve"
   id="svg8"
   sodipodi:docname="oil.svg"
   width="50"
   height="50"
   inkscape:version="0.92.5 (2060ec1f9f, 2020-04-08)"><metadata
     id="metadata14"><rdf:RDF><cc:Work
         rdf:about=""><dc:format>image/svg+xml</dc:format><dc:type
           rdf:resource="http://purl.org/dc/dcmitype/StillImage" /><dc:title></dc:title></cc:Work></rdf:RDF></metadata><defs
     id="defs12" /><sodipodi:namedview
     pagecolor="#ffffff"
     bordercolor="#666666"
     borderopacity="1"
     objecttolerance="10"
     gridtolerance="10"
     guidetolerance="10"
     inkscape:pageopacity="0"
     inkscape:pageshadow="2"
     inkscape:window-width="2498"
     inkscape:window-height="1057"
     id="namedview10"
     showgrid="false"
     inkscape:zoom="1.3350176"
     inkscape:cx="27.270908"
     inkscape:cy="67.326641"
     inkscape:window-x="54"
     inkscape:window-y="-8"
     inkscape:window-maximized="1"
     inkscape:current-layer="svg8" /><g
     id="g6"
     transform="matrix(0.44411592,0,0,0.44411592,2.814263,2.7997554)"><path
       d="m 89.3,39.4 c 0.2,0.1 0.6,0.2 0.9,0.4 0.4,0.4 0.6,1 0.6,1.9 0,1.4 1.1,2.5 2.5,2.5 1.4,0 2.5,-1.1 2.5,-2.5 0,-2.9 -1.1,-4.6 -2.1,-5.5 -1.9,-1.9 -4.4,-1.9 -4.7,-1.9 -0.3,0 -0.5,0.1 -0.8,0.1 l -14,4.9 c -0.1,0 -0.2,0.1 -0.2,0.1 l -17.7,6.2 c -1,0.2 -2.2,0.4 -2.8,0.3 C 53,45.1 52.3,43.6 51.9,42.7 51.5,41.8 50.6,41.2 49.6,41.2 H 40 V 36 h 4.3 c 1.4,0 2.5,-1.1 2.5,-2.5 0,-1.4 -1.3,-2.5 -2.7,-2.5 H 30.6 c -1.4,0 -2.5,1.1 -2.5,2.5 0,1.4 1.1,2.5 2.5,2.5 h 4.3 v 5.2 h -12 v -2.6 c 0,-1 -0.6,-1.9 -1.5,-2.3 L 6.8,30 C 6.1,29.7 5.4,29.7 4.7,30 4,30.3 3.6,30.9 3.4,31.6 L 0.1,43.1 c -0.4,1.2 0.3,2.5 1.4,3 l 16.3,6.8 v 14.8 c 0,1.4 1.1,2.5 2.5,2.5 H 62 c 0.8,0 1.5,-0.4 2,-1 L 84.7,41 Z m -83.8,2.9 1.9,-6.6 10.5,4.5 v 3.5 3.7 z M 60.7,65.2 H 22.9 v -14 -5 h 25 c 0.5,1.1 1.2,2.4 2,3.3 1.8,2.1 5.6,1.5 7.7,1 0.1,0 0.1,0 0.2,-0.1 l 18.6,-6.5 z"
       id="path2"
       inkscape:connector-curvature="0" /><path
       d="m 95.3,49.5 c -0.4,-0.8 -1.2,-1.2 -2.1,-1.2 -0.9,0 -1.7,0.4 -2.2,1.2 -1.2,1.9 -7.1,11.8 -4.2,17.2 0.8,1.4 2.5,3.2 6.3,3.2 3.5,0 5.1,-1.6 5.9,-3 3.1,-5.4 -2.5,-15.5 -3.7,-17.4 z m -0.5,14.7 c -0.2,0.3 -0.7,0.5 -1.6,0.5 -0.7,0 -1.6,-0.1 -1.9,-0.6 -0.7,-1.3 0.2,-4.6 1.8,-8 1.5,3.4 2.4,6.9 1.7,8.1 z"
       id="path4"
       inkscape:connector-curvature="0" /></g></svg>