<?xml version="1.0" encoding="UTF-8" standalone="no"?>
<svg
   xmlns:dc="http://purl.org/dc/elements/1.1/"
   xmlns:cc="http://creativecommons.org/ns#"
   xmlns:rdf="http://www.w3.org/1999/02/22-rdf-syntax-ns#"
   xmlns:svg="http://www.w3.org/2000/svg"
   xmlns="http://www.w3.org/2000/svg"
   xmlns:sodipodi="http://sodipodi.sourceforge.net/DTD/sodipodi-0.dtd"
   xmlns:inkscape="http://www.inkscape.org/namespaces/inkscape"
   width="123.4"
   height="123.4"
   viewBox="0 0 123.4 123.4"
   version="1.1"
   id="svg5"
   sodipodi:docname="psi.svg"
   inkscape:version="0.92.5 (2060ec1f9f, 2020-04-08)">
  <metadata
     id="metadata11">
    <rdf:RDF>
      <cc:Work
         rdf:about="">
        <dc:format>image/svg+xml</dc:format>
        <dc:type
           rdf:resource="http://purl.org/dc/dcmitype/StillImage" />
        <dc:title></dc:title>
      </cc:Work>
    </rdf:RDF>
  </metadata>
  <defs
     id="defs9" />
  <sodipodi:namedview
     pagecolor="#ffffff"
     bordercolor="#666666"
     borderopacity="1"
     objecttolerance="10"
     gridtolerance="10"
     guidetolerance="10"
     inkscape:pageopacity="0"
     inkscape:pageshadow="2"
     inkscape:window-width="1761"
     inkscape:window-height="830"
     id="namedview7"
     showgrid="false"
     inkscape:zoom="2.3014586"
     inkscape:cx="-8.9073954"
     inkscape:cy="36.200499"
     inkscape:window-x="130"
     inkscape:window-y="14"
     inkscape:window-maximized="0"
     inkscape:current-layer="svg5" />
  <g
     id="svgGroup"
     font-size="9pt"
     style="font-size:12px;fill:#95f6fd;fill-rule:evenodd;stroke-linecap:round"
     transform="matrix(0.60147994,0,0,0.64483524,24.588688,37.855996)">
    <path
       d="m 51.1,65.3 4.8,-8 q 3.6,3 8.1,4.9 a 23.348,23.348 0 0 0 5.37,1.51 32.118,32.118 0 0 0 5.13,0.39 27.981,27.981 0 0 0 4.547,-0.346 q 2.423,-0.4 4.384,-1.26 A 13.701,13.701 0 0 0 85.9,61.1 q 4.048,-2.891 4.195,-7.734 A 12.116,12.116 0 0 0 90.1,53 11.94,11.94 0 0 0 89.763,50.107 9.816,9.816 0 0 0 88.9,47.85 8.097,8.097 0 0 0 87.7,46.194 Q 86.43,44.813 84.284,43.471 A 25.81,25.81 0 0 0 84.25,43.45 Q 81.134,41.508 75.365,39.28 A 118.584,118.584 0 0 0 74.1,38.8 Q 66.9,36 62.6,33.15 a 21.931,21.931 0 0 1 -3.089,-2.447 q -1.717,-1.65 -2.773,-3.515 A 13.303,13.303 0 0 1 56.45,26.65 Q 54.6,23 54.6,18 q 0,-5 2.75,-9.05 2.75,-4.05 8.1,-6.5 a 25.558,25.558 0 0 1 5.9,-1.835 Q 74.593,0 78.4,0 84.6,0 89.55,1.25 94.5,2.5 99.2,4.8 l -3.5,8.1 A 31.496,31.496 0 0 0 91.574,10.881 41.686,41.686 0 0 0 87.75,9.55 Q 83.2,8.2 78.2,8.2 A 27.187,27.187 0 0 0 74.17,8.48 Q 72.038,8.8 70.3,9.487 A 12.616,12.616 0 0 0 67.8,10.8 9.902,9.902 0 0 0 65.637,12.765 7.359,7.359 0 0 0 64,17.5 10.464,10.464 0 0 0 64.292,20.022 8.562,8.562 0 0 0 65.1,22.1 q 1.056,1.919 4.091,3.747 A 23.503,23.503 0 0 0 69.45,26 a 33.003,33.003 0 0 0 2.216,1.172 q 2.269,1.103 5.48,2.351 A 130.016,130.016 0 0 0 79.2,30.3 81.228,81.228 0 0 1 84.178,32.329 Q 88.564,34.3 91.55,36.4 a 26.044,26.044 0 0 1 3.04,2.478 Q 96.813,41.006 98,43.35 A 17.579,17.579 0 0 1 99.741,49.213 22.155,22.155 0 0 1 99.9,51.9 21.71,21.71 0 0 1 99.233,57.401 17.105,17.105 0 0 1 96.65,63 q -3.25,4.6 -9,7 A 30.521,30.521 0 0 1 80.24,72.004 40.027,40.027 0 0 1 74.5,72.4 q -7.3,0 -13.3,-1.95 A 38.206,38.206 0 0 1 55.833,68.268 28.433,28.433 0 0 1 51.1,65.3 Z M 9.5,71.2 H 0 V 1.4 Q 4.1,0.9 9.05,0.65 A 200.806,200.806 0 0 1 17.98,0.404 221.966,221.966 0 0 1 19.3,0.4 q 7.57,0 13.172,2.082 A 26.011,26.011 0 0 1 34.1,3.15 24.606,24.606 0 0 1 39.182,6.179 19.374,19.374 0 0 1 43.4,10.7 q 3.2,4.8 3.2,11 A 25.258,25.258 0 0 1 45.892,27.822 19.268,19.268 0 0 1 42.9,34.4 22.312,22.312 0 0 1 35.349,41.03 28.065,28.065 0 0 1 32.6,42.35 34.774,34.774 0 0 1 24.511,44.574 47.194,47.194 0 0 1 17.3,45.1 q -4.2,0 -7.8,-0.3 z m 113.9,0 h -9.5 v -70 h 9.5 z M 9.5,8.8 v 27.9 q 1.1,0.138 2.531,0.252 A 96.255,96.255 0 0 0 13.4,37.05 q 2.3,0.15 5.1,0.15 a 31.831,31.831 0 0 0 5.38,-0.425 q 2.879,-0.495 5.183,-1.564 A 15.221,15.221 0 0 0 32.3,33.2 12.896,12.896 0 0 0 37.155,23.758 17.32,17.32 0 0 0 37.2,22.5 14.452,14.452 0 0 0 36.439,17.707 12.136,12.136 0 0 0 32.5,12.2 15.462,15.462 0 0 0 27.419,9.537 Q 25.193,8.826 22.5,8.56 A 34.58,34.58 0 0 0 19.1,8.4 131.125,131.125 0 0 0 15.842,8.439 109.939,109.939 0 0 0 14,8.5 91.274,91.274 0 0 0 11.117,8.664 75.041,75.041 0 0 0 9.5,8.8 Z"
       id="path2"
       inkscape:connector-curvature="0"
       style="vector-effect:non-scaling-stroke" />
  </g>
</svg>
