<?xml version="1.0" encoding="UTF-8" standalone="no"?>
<svg
   xmlns:dc="http://purl.org/dc/elements/1.1/"
   xmlns:cc="http://creativecommons.org/ns#"
   xmlns:rdf="http://www.w3.org/1999/02/22-rdf-syntax-ns#"
   xmlns:svg="http://www.w3.org/2000/svg"
   xmlns="http://www.w3.org/2000/svg"
   xmlns:sodipodi="http://sodipodi.sourceforge.net/DTD/sodipodi-0.dtd"
   xmlns:inkscape="http://www.inkscape.org/namespaces/inkscape"
   version="1.1"
   x="0px"
   y="0px"
   viewBox="0 0 50 50"
   style="fill:#95f6fd"
   enable-background="new 0 0 512 512"
   xml:space="preserve"
   id="svg60"
   sodipodi:docname="turbo.svg"
   width="50"
   height="50"
   inkscape:version="0.92.5 (2060ec1f9f, 2020-04-08)"><metadata
     id="metadata66"><rdf:RDF><cc:Work
         rdf:about=""><dc:format>image/svg+xml</dc:format><dc:type
           rdf:resource="http://purl.org/dc/dcmitype/StillImage" /><dc:title></dc:title></cc:Work></rdf:RDF></metadata><defs
     id="defs64" /><sodipodi:namedview
     pagecolor="#ffffff"
     bordercolor="#666666"
     borderopacity="1"
     objecttolerance="10"
     gridtolerance="10"
     guidetolerance="10"
     inkscape:pageopacity="0"
     inkscape:pageshadow="2"
     inkscape:window-width="2498"
     inkscape:window-height="1057"
     id="namedview62"
     showgrid="false"
     inkscape:zoom="4.17193"
     inkscape:cx="63.632468"
     inkscape:cy="23.717123"
     inkscape:window-x="54"
     inkscape:window-y="-8"
     inkscape:window-maximized="1"
     inkscape:current-layer="svg60" /><g
     id="g54"
     transform="matrix(0.08058555,0,0,0.08058555,4.3700992,4.3700992)"><g
       id="g4"><path
         d="m 435.16,167.11 h -26.14 c -2.762,0 -5,-2.239 -5,-5 0,-2.761 2.238,-5 5,-5 h 21.141 V 66.45 H 235.72 c -2.761,0 -5,-2.239 -5,-5 0,-2.761 2.239,-5 5,-5 h 199.44 c 2.762,0 5,2.239 5,5 v 100.66 c 0,2.761 -2.238,5 -5,5 z"
         id="path2"
         inkscape:connector-curvature="0" /></g><g
       id="g8"><path
         d="m 235.72,465.35 c -112.734,0 -204.45,-91.716 -204.45,-204.449 0,-112.734 91.716,-204.45 204.45,-204.45 36.721,0 72.735,9.849 104.148,28.48 30.496,18.088 55.909,43.919 73.493,74.699 17.532,30.698 26.799,65.717 26.799,101.271 0,112.733 -91.712,204.449 -204.44,204.449 z m 0,-398.9 c -107.22,0 -194.45,87.23 -194.45,194.45 0,107.22 87.23,194.449 194.45,194.449 107.215,0 194.44,-87.229 194.44,-194.449 0,-33.817 -8.812,-67.121 -25.482,-96.311 C 370.097,104.055 305.356,66.45 235.72,66.45 Z m 0,218.38 c -6.385,0 -12.394,-2.485 -16.92,-6.999 -4.524,-4.537 -7.01,-10.546 -7.01,-16.931 0,-6.392 2.488,-12.399 7.004,-16.916 4.522,-4.523 10.534,-7.014 16.925,-7.014 6.398,0 12.408,2.493 16.921,7.02 4.516,4.503 7.009,10.513 7.009,16.911 0,6.392 -2.491,12.402 -7.014,16.925 -4.517,4.517 -10.524,7.004 -16.915,7.004 z m 0,-37.86 c -3.72,0 -7.22,1.451 -9.854,4.085 -2.628,2.628 -4.076,6.125 -4.076,9.845 0,3.719 1.449,7.22 4.081,9.859 2.629,2.621 6.13,4.07 9.849,4.07 3.72,0 7.216,-1.447 9.844,-4.075 2.635,-2.635 4.085,-6.135 4.085,-9.854 0,-3.722 -1.449,-7.216 -4.08,-9.84 -2.633,-2.641 -6.128,-4.09 -9.849,-4.09 z"
         id="path6"
         inkscape:connector-curvature="0" /></g><g
       id="g12"><path
         d="m 235.72,372.05 c -61.289,0 -111.15,-49.861 -111.15,-111.149 0,-61.289 49.862,-111.15 111.15,-111.15 61.283,0 111.141,49.862 111.141,111.15 C 346.86,322.188 297.003,372.05 235.72,372.05 Z m 0,-212.3 c -55.774,0 -101.15,45.376 -101.15,101.15 0,55.774 45.375,101.15 101.15,101.15 55.77,0 101.141,-45.375 101.141,-101.149 0,-55.774 -45.372,-101.151 -101.141,-101.151 z m 0,125.08 c -6.385,0 -12.394,-2.485 -16.92,-6.999 -4.524,-4.537 -7.01,-10.546 -7.01,-16.931 0,-6.392 2.488,-12.399 7.004,-16.916 4.522,-4.523 10.534,-7.014 16.925,-7.014 6.398,0 12.408,2.493 16.921,7.02 4.516,4.503 7.009,10.513 7.009,16.911 0,6.392 -2.491,12.402 -7.014,16.925 -4.517,4.517 -10.524,7.004 -16.915,7.004 z m 0,-37.86 c -3.72,0 -7.22,1.451 -9.854,4.085 -2.628,2.628 -4.076,6.125 -4.076,9.845 0,3.719 1.449,7.221 4.081,9.859 2.629,2.621 6.13,4.07 9.849,4.07 3.72,0 7.216,-1.447 9.844,-4.075 2.635,-2.635 4.085,-6.135 4.085,-9.854 0,-3.722 -1.449,-7.216 -4.08,-9.84 -2.633,-2.641 -6.128,-4.09 -9.849,-4.09 z"
         id="path10"
         inkscape:connector-curvature="0" /></g><g
       id="g16"><path
         d="m 235.72,347.71 c -23.179,0 -44.979,-9.029 -61.384,-25.423 C 157.939,305.88 148.91,284.08 148.91,260.9 c 0,-23.18 9.029,-44.98 25.423,-61.385 16.408,-16.396 38.208,-25.425 61.386,-25.425 23.173,0 44.969,9.029 61.374,25.423 16.403,16.392 25.437,38.192 25.437,61.387 0,23.194 -9.033,44.995 -25.437,61.387 -16.405,16.394 -38.2,25.423 -61.373,25.423 z m 0,-163.62 c -20.509,0 -39.798,7.989 -54.315,22.497 -14.505,14.514 -22.494,33.804 -22.494,54.314 0,20.51 7.989,39.8 22.497,54.315 14.515,14.505 33.804,22.494 54.313,22.494 20.502,0 39.789,-7.989 54.306,-22.497 14.513,-14.502 22.505,-33.79 22.505,-54.313 0,-20.523 -7.992,-39.812 -22.505,-54.314 C 275.509,192.079 256.223,184.09 235.72,184.09 Z m 0,100.74 c -6.385,0 -12.394,-2.485 -16.92,-6.999 -4.524,-4.537 -7.01,-10.546 -7.01,-16.931 0,-6.392 2.488,-12.399 7.004,-16.916 4.522,-4.523 10.534,-7.014 16.925,-7.014 6.398,0 12.408,2.493 16.921,7.02 4.516,4.503 7.009,10.513 7.009,16.911 0,6.392 -2.491,12.402 -7.014,16.925 -4.517,4.517 -10.524,7.004 -16.915,7.004 z m 0,-37.86 c -3.72,0 -7.22,1.451 -9.854,4.085 -2.628,2.628 -4.076,6.125 -4.076,9.845 0,3.719 1.449,7.221 4.081,9.859 2.629,2.621 6.13,4.07 9.849,4.07 3.72,0 7.216,-1.447 9.844,-4.075 2.635,-2.635 4.085,-6.135 4.085,-9.854 0,-3.722 -1.449,-7.216 -4.08,-9.84 -2.633,-2.641 -6.128,-4.09 -9.849,-4.09 z"
         id="path14"
         inkscape:connector-curvature="0" /></g><g
       id="g20"><path
         d="m 235.72,347.71 c -2.761,0 -5,-2.238 -5,-5 v -62.88 c 0,-2.762 2.239,-5 5,-5 2.761,0 5,2.238 5,5 v 62.88 c 0,2.762 -2.239,5 -5,5 z"
         id="path18"
         inkscape:connector-curvature="0" /></g><g
       id="g24"><path
         d="m 235.72,246.97 c -2.761,0 -5,-2.239 -5,-5 v -62.88 c 0,-2.761 2.239,-5 5,-5 2.761,0 5,2.239 5,5 v 62.88 c 0,2.761 -2.239,5 -5,5 z"
         id="path22"
         inkscape:connector-curvature="0" /></g><g
       id="g28"><path
         d="m 177.87,323.75 c -1.28,0 -2.559,-0.488 -3.536,-1.465 -1.953,-1.952 -1.953,-5.118 0,-7.07 l 44.46,-44.46 c 1.953,-1.953 5.118,-1.953 7.071,0 1.953,1.952 1.953,5.118 0,7.07 l -44.46,44.46 c -0.976,0.977 -2.255,1.465 -3.535,1.465 z"
         id="path26"
         inkscape:connector-curvature="0" /></g><g
       id="g32"><path
         d="m 249.1,252.52 c -1.279,0 -2.559,-0.488 -3.535,-1.464 -1.953,-1.953 -1.953,-5.119 -0.001,-7.071 l 44.46,-44.47 c 1.953,-1.953 5.118,-1.953 7.071,-10e-4 1.953,1.953 1.953,5.119 10e-4,7.071 l -44.46,44.47 c -0.977,0.977 -2.257,1.465 -3.536,1.465 z"
         id="path30"
         inkscape:connector-curvature="0" /></g><g
       id="g36"><path
         d="m 216.79,265.9 h -62.88 c -2.761,0 -5,-2.238 -5,-5 0,-2.762 2.239,-5 5,-5 h 62.88 c 2.761,0 5,2.238 5,5 0,2.762 -2.239,5 -5,5 z"
         id="path34"
         inkscape:connector-curvature="0" /></g><g
       id="g40"><path
         d="m 317.53,265.9 h -62.881 c -2.761,0 -5,-2.238 -5,-5 0,-2.762 2.239,-5 5,-5 h 62.881 c 2.762,0 5,2.238 5,5 0,2.762 -2.238,5 -5,5 z"
         id="path38"
         inkscape:connector-curvature="0" /></g><g
       id="g44"><path
         d="m 222.33,252.52 c -1.28,0 -2.56,-0.488 -3.536,-1.465 l -44.46,-44.47 c -1.952,-1.953 -1.952,-5.119 0.001,-7.071 1.953,-1.951 5.119,-1.951 7.071,10e-4 l 44.46,44.47 c 1.952,1.953 1.952,5.119 -0.001,7.071 -0.976,0.976 -2.256,1.464 -3.535,1.464 z"
         id="path42"
         inkscape:connector-curvature="0" /></g><g
       id="g48"><path
         d="m 293.56,323.75 c -1.279,0 -2.56,-0.488 -3.535,-1.465 l -44.46,-44.46 c -1.953,-1.952 -1.953,-5.118 0,-7.07 1.953,-1.953 5.118,-1.953 7.071,0 l 44.459,44.46 c 1.953,1.952 1.953,5.118 0,7.07 -0.976,0.977 -2.256,1.465 -3.535,1.465 z"
         id="path46"
         inkscape:connector-curvature="0" /></g><g
       id="g52"><path
         d="m 470.73,176.913 h -30.566 c -5.514,0 -10,-4.486 -10,-10 V 56.65 c 0,-5.514 4.486,-10 10,-10 h 30.566 c 5.514,0 10,4.486 10,10 v 110.263 c 0,5.514 -4.486,10 -10,10 z M 440.164,56.65 v 110.263 h 30.552 L 470.73,56.65 Z"
         id="path50"
         inkscape:connector-curvature="0" /></g></g></svg>