<svg xmlns="http://www.w3.org/2000/svg" xmlns:xlink="http://www.w3.org/1999/xlink" version="1.1" x="0px" y="0px" viewBox="0 0 512 640" enable-background="new 0 0 512 512" xml:space="preserve"><g><g><path d="M435.16,167.11H409.02c-2.762,0-5-2.239-5-5s2.238-5,5-5h21.141V66.45H235.72c-2.761,0-5-2.239-5-5s2.239-5,5-5h199.44    c2.762,0,5,2.239,5,5v100.66C440.16,164.871,437.922,167.11,435.16,167.11z"/></g><g><path d="M235.72,465.35c-112.734,0-204.45-91.716-204.45-204.449c0-112.734,91.716-204.45,204.45-204.45    c36.721,0,72.735,9.849,104.148,28.48c30.496,18.088,55.909,43.919,73.493,74.699c17.532,30.698,26.799,65.717,26.799,101.271    C440.16,373.634,348.448,465.35,235.72,465.35z M235.72,66.45c-107.22,0-194.45,87.23-194.45,194.45    c0,107.22,87.23,194.449,194.45,194.449c107.215,0,194.44-87.229,194.44-194.449c0-33.817-8.812-67.121-25.482-96.311    C370.097,104.055,305.356,66.45,235.72,66.45z M235.72,284.83c-6.385,0-12.394-2.485-16.92-6.999    c-4.524-4.537-7.01-10.546-7.01-16.931c0-6.392,2.488-12.399,7.004-16.916c4.522-4.523,10.534-7.014,16.925-7.014    c6.398,0,12.408,2.493,16.921,7.02c4.516,4.503,7.009,10.513,7.009,16.911c0,6.392-2.491,12.402-7.014,16.925    C248.118,282.343,242.111,284.83,235.72,284.83z M235.72,246.97c-3.72,0-7.22,1.451-9.854,4.085    c-2.628,2.628-4.076,6.125-4.076,9.845c0,3.719,1.449,7.22,4.081,9.859c2.629,2.621,6.13,4.07,9.849,4.07    c3.72,0,7.216-1.447,9.844-4.075c2.635-2.635,4.085-6.135,4.085-9.854c0-3.722-1.449-7.216-4.08-9.84    C242.936,248.419,239.441,246.97,235.72,246.97z"/></g><g><path d="M235.72,372.05c-61.289,0-111.15-49.861-111.15-111.149c0-61.289,49.862-111.15,111.15-111.15    c61.283,0,111.141,49.862,111.141,111.15C346.86,322.188,297.003,372.05,235.72,372.05z M235.72,159.75    c-55.774,0-101.15,45.376-101.15,101.15S179.945,362.05,235.72,362.05c55.77,0,101.141-45.375,101.141-101.149    S291.489,159.75,235.72,159.75z M235.72,284.83c-6.385,0-12.394-2.485-16.92-6.999c-4.524-4.537-7.01-10.546-7.01-16.931    c0-6.392,2.488-12.399,7.004-16.916c4.522-4.523,10.534-7.014,16.925-7.014c6.398,0,12.408,2.493,16.921,7.02    c4.516,4.503,7.009,10.513,7.009,16.911c0,6.392-2.491,12.402-7.014,16.925C248.118,282.343,242.111,284.83,235.72,284.83z     M235.72,246.97c-3.72,0-7.22,1.451-9.854,4.085c-2.628,2.628-4.076,6.125-4.076,9.845c0,3.719,1.449,7.221,4.081,9.859    c2.629,2.621,6.13,4.07,9.849,4.07c3.72,0,7.216-1.447,9.844-4.075c2.635-2.635,4.085-6.135,4.085-9.854    c0-3.722-1.449-7.216-4.08-9.84C242.936,248.419,239.441,246.97,235.72,246.97z"/></g><g><path d="M235.72,347.71c-23.179,0-44.979-9.029-61.384-25.423C157.939,305.88,148.91,284.08,148.91,260.9    c0-23.18,9.029-44.98,25.423-61.385c16.408-16.396,38.208-25.425,61.386-25.425c23.173,0,44.969,9.029,61.374,25.423    c16.403,16.392,25.437,38.192,25.437,61.387c0,23.194-9.033,44.995-25.437,61.387C280.688,338.681,258.893,347.71,235.72,347.71z     M235.72,184.09c-20.509,0-39.798,7.989-54.315,22.497c-14.505,14.514-22.494,33.804-22.494,54.314    c0,20.51,7.989,39.8,22.497,54.315c14.515,14.505,33.804,22.494,54.313,22.494c20.502,0,39.789-7.989,54.306-22.497    c14.513-14.502,22.505-33.79,22.505-54.313s-7.992-39.812-22.505-54.314C275.509,192.079,256.223,184.09,235.72,184.09z     M235.72,284.83c-6.385,0-12.394-2.485-16.92-6.999c-4.524-4.537-7.01-10.546-7.01-16.931c0-6.392,2.488-12.399,7.004-16.916    c4.522-4.523,10.534-7.014,16.925-7.014c6.398,0,12.408,2.493,16.921,7.02c4.516,4.503,7.009,10.513,7.009,16.911    c0,6.392-2.491,12.402-7.014,16.925C248.118,282.343,242.111,284.83,235.72,284.83z M235.72,246.97    c-3.72,0-7.22,1.451-9.854,4.085c-2.628,2.628-4.076,6.125-4.076,9.845c0,3.719,1.449,7.221,4.081,9.859    c2.629,2.621,6.13,4.07,9.849,4.07c3.72,0,7.216-1.447,9.844-4.075c2.635-2.635,4.085-6.135,4.085-9.854    c0-3.722-1.449-7.216-4.08-9.84C242.936,248.419,239.441,246.97,235.72,246.97z"/></g><g><path d="M235.72,347.71c-2.761,0-5-2.238-5-5v-62.88c0-2.762,2.239-5,5-5s5,2.238,5,5v62.88    C240.72,345.472,238.481,347.71,235.72,347.71z"/></g><g><path d="M235.72,246.97c-2.761,0-5-2.239-5-5v-62.88c0-2.761,2.239-5,5-5s5,2.239,5,5v62.88    C240.72,244.731,238.481,246.97,235.72,246.97z"/></g><g><path d="M177.87,323.75c-1.28,0-2.559-0.488-3.536-1.465c-1.953-1.952-1.953-5.118,0-7.07l44.46-44.46    c1.953-1.953,5.118-1.953,7.071,0c1.953,1.952,1.953,5.118,0,7.07l-44.46,44.46C180.429,323.262,179.15,323.75,177.87,323.75z"/></g><g><path d="M249.1,252.52c-1.279,0-2.559-0.488-3.535-1.464c-1.953-1.953-1.953-5.119-0.001-7.071l44.46-44.47    c1.953-1.953,5.118-1.953,7.071-0.001c1.953,1.953,1.953,5.119,0.001,7.071l-44.46,44.47    C251.659,252.032,250.379,252.52,249.1,252.52z"/></g><g><path d="M216.79,265.9h-62.88c-2.761,0-5-2.238-5-5s2.239-5,5-5h62.88c2.761,0,5,2.238,5,5S219.551,265.9,216.79,265.9z"/></g><g><path d="M317.53,265.9h-62.881c-2.761,0-5-2.238-5-5s2.239-5,5-5h62.881c2.762,0,5,2.238,5,5S320.292,265.9,317.53,265.9z"/></g><g><path d="M222.33,252.52c-1.28,0-2.56-0.488-3.536-1.465l-44.46-44.47c-1.952-1.953-1.952-5.119,0.001-7.071    c1.953-1.951,5.119-1.951,7.071,0.001l44.46,44.47c1.952,1.953,1.952,5.119-0.001,7.071    C224.889,252.032,223.609,252.52,222.33,252.52z"/></g><g><path d="M293.56,323.75c-1.279,0-2.56-0.488-3.535-1.465l-44.46-44.46c-1.953-1.952-1.953-5.118,0-7.07    c1.953-1.953,5.118-1.953,7.071,0l44.459,44.46c1.953,1.952,1.953,5.118,0,7.07C296.119,323.262,294.839,323.75,293.56,323.75z"/></g><g><path d="M470.73,176.913h-30.566c-5.514,0-10-4.486-10-10V56.65c0-5.514,4.486-10,10-10h30.566c5.514,0,10,4.486,10,10v110.263    C480.73,172.427,476.244,176.913,470.73,176.913z M440.164,56.65v110.263h30.552L470.73,56.65H440.164z"/></g></g><text x="0" y="527" fill="#000000" font-size="5px" font-weight="bold" font-family="'Helvetica Neue', Helvetica, Arial-Unicode, Arial, Sans-serif">by Muhammad Nur Auliady Pamungkas</text><text x="0" y="532" fill="#000000" font-size="5px" font-weight="bold" font-family="'Helvetica Neue', Helvetica, Arial-Unicode, Arial, Sans-serif">from the Noun Project</text></svg>