<?xml version="1.0" encoding="UTF-8" standalone="no"?>
<!-- Created with Inkscape (http://www.inkscape.org/) -->

<svg
   xmlns:dc="http://purl.org/dc/elements/1.1/"
   xmlns:cc="http://creativecommons.org/ns#"
   xmlns:rdf="http://www.w3.org/1999/02/22-rdf-syntax-ns#"
   xmlns:svg="http://www.w3.org/2000/svg"
   xmlns="http://www.w3.org/2000/svg"
   xmlns:sodipodi="http://sodipodi.sourceforge.net/DTD/sodipodi-0.dtd"
   xmlns:inkscape="http://www.inkscape.org/namespaces/inkscape"
   viewBox="0 0 50 50"
   version="1.1"
   id="svg845"
   inkscape:version="0.92.5 (2060ec1f9f, 2020-04-08)"
   sodipodi:docname="water-temp.svg">
  <defs
     id="defs839" />
  <sodipodi:namedview
     id="base"
     pagecolor="#ffffff"
     bordercolor="#666666"
     borderopacity="1.0"
     inkscape:pageopacity="0.0"
     inkscape:pageshadow="2"
     inkscape:zoom="2.8"
     inkscape:cx="82.647469"
     inkscape:cy="114.61206"
     inkscape:document-units="mm"
     inkscape:current-layer="layer1"
     showgrid="false"
     inkscape:window-width="2498"
     inkscape:window-height="1057"
     inkscape:window-x="54"
     inkscape:window-y="-8"
     inkscape:window-maximized="1" />
  <metadata
     id="metadata842">
    <rdf:RDF>
      <cc:Work
         rdf:about="">
        <dc:format>image/svg+xml</dc:format>
        <dc:type
           rdf:resource="http://purl.org/dc/dcmitype/StillImage" />
        <dc:title></dc:title>
      </cc:Work>
    </rdf:RDF>
  </metadata>
  <g
     inkscape:label="Layer 1"
     inkscape:groupmode="layer"
     id="layer1"
     transform="translate(0,-247)">
    <path
       id="path8"
       style="fill:#95f6fd;stroke-width:0.44128719"
       d="m 40.062227,286.55895 c -1.884729,0 -2.874986,-0.85434 -3.669737,-1.54055 -0.676048,-0.58293 -1.164563,-1.00436 -2.22894,-1.00436 -0.609418,0 -1.103221,-0.49381 -1.103221,-1.10321 0,-0.60943 0.493803,-1.10324 1.103221,-1.10324 1.884729,0 2.874986,0.85433 3.670186,1.54055 0.675599,0.58294 1.164114,1.00435 2.228491,1.00435 1.064394,0 1.552891,-0.42141 2.228507,-1.00435 0.795635,-0.68665 1.785441,-1.54055 3.670186,-1.54055 0.60942,0 1.103221,0.49381 1.103221,1.10324 0,0.6094 -0.493802,1.10321 -1.103221,1.10321 -1.064393,0 -1.552891,0.42143 -2.22894,1.00436 -0.795201,0.68666 -1.785008,1.54055 -3.669753,1.54055 z m -30.1249035,0 c -1.884746,0 -2.874552,-0.85434 -3.669753,-1.54055 -0.67605,-0.58293 -1.164115,-1.00436 -2.228491,-1.00436 -0.609419,0 -1.103221,-0.49381 -1.103221,-1.10321 0,-0.60943 0.493802,-1.10324 1.103221,-1.10324 1.884729,0 2.874985,0.85433 3.670186,1.54055 0.675599,0.58294 1.164115,1.00435 2.228491,1.00435 1.0639425,0 1.5520075,-0.42141 2.2271725,-1.00435 0.795201,-0.68665 1.784574,-1.54055 3.669303,-1.54055 0.609418,0 1.103221,0.49381 1.103221,1.10324 0,0.6094 -0.493803,1.10321 -1.103221,1.10321 -1.063943,0 -1.552008,0.42143 -2.227173,1.00436 -0.796085,0.68666 -1.785441,1.54055 -3.6697355,1.54055 z m 26.8585055,7.50541 c -1.884745,0 -2.874985,-0.85433 -3.670186,-1.54053 -0.67605,-0.58294 -1.164565,-1.00439 -2.229392,-1.00439 -1.064827,0 -1.553325,0.42145 -2.229375,1.00439 -0.794767,0.6862 -1.784573,1.54053 -3.669752,1.54053 -1.884729,0 -2.874536,-0.85433 -3.669737,-1.54053 -0.675615,-0.58294 -1.164114,-1.00439 -2.228507,-1.00439 -1.063943,0 -1.552008,0.42145 -2.227173,1.00439 -0.795635,0.6862 -1.785008,1.54053 -3.669753,1.54053 -1.884729,0 -2.874535,-0.85433 -3.6697365,-1.54053 -0.675616,-0.58294 -1.164115,-1.00439 -2.228508,-1.00439 -0.609418,0 -1.103204,-0.4938 -1.103204,-1.10322 0,-0.60942 0.493786,-1.1032 1.103204,-1.1032 1.884746,0 2.8745525,0.85432 3.6697535,1.54051 0.676049,0.58297 1.164548,1.00439 2.228491,1.00439 1.063943,0 1.552008,-0.42142 2.22719,-1.00439 0.7952,-0.68662 1.784557,-1.54051 3.669302,-1.54051 1.884729,0 2.874986,0.85432 3.670187,1.54051 0.676049,0.58297 1.164113,1.00439 2.22849,1.00439 1.064394,0 1.552892,-0.42142 2.228507,-1.00439 0.795635,-0.68662 1.785892,-1.54051 3.67062,-1.54051 1.884746,0 2.874986,0.85432 3.670187,1.54051 0.676499,0.58297 1.164564,1.00439 2.229391,1.00439 1.064827,0 1.553326,-0.42142 2.229375,-1.00439 0.795651,-0.68662 1.785458,-1.54051 3.670186,-1.54051 0.609419,0 1.103221,0.49378 1.103221,1.1032 0,0.60942 -0.493802,1.10322 -1.103221,1.10322 -1.064826,0 -1.553325,0.42145 -2.229374,1.00439 -0.794768,0.6862 -1.785008,1.54053 -3.670186,1.54053 z m -2.727163,-28.32755 c 0.609418,0 1.103221,-0.49379 1.103221,-1.10321 0,-0.60942 -0.493803,-1.10322 -1.103221,-1.10322 h -6.166553 v -4.65249 h 6.166553 c 0.609417,0 1.10322,-0.4938 1.10322,-1.10322 0,-0.60943 -0.493803,-1.10324 -1.10322,-1.10324 h -6.166553 v -3.82551 c 0,-1.60495 -1.305766,-2.91028 -2.910278,-2.91028 -1.604962,0 -2.910294,1.30532 -2.910294,2.91028 v 26.54872 c -1.051583,0.86315 -1.663654,2.14024 -1.663654,3.52501 0,2.52195 2.051548,4.5735 4.573948,4.5735 2.522402,0 4.573932,-2.05155 4.573932,-4.5735 0,-1.38522 -0.612053,-2.66186 -1.663654,-3.52501 v -6.79891 h 6.166553 c 0.609417,0 1.10322,-0.4938 1.10322,-1.10322 0,-0.60943 -0.493803,-1.10322 -1.10322,-1.10322 h -6.166553 v -4.65248 z m -9.07683,19.5499 c -1.305331,0 -2.367506,-1.06174 -2.367506,-2.36706 0,-0.8283 0.42452,-1.58246 1.136311,-2.01757 0.327434,-0.20078 0.527343,-0.55733 0.527343,-0.94125 v -27.11489 c 0,-0.38173 0.32213,-0.70386 0.703852,-0.70386 0.381706,0 0.703853,0.32213 0.703853,0.70386 v 27.11489 c 0,0.38392 0.199459,0.74047 0.527326,0.94125 0.710924,0.43511 1.135878,1.18928 1.135878,2.01757 4.5e-4,1.30532 -1.061741,2.36706 -2.367057,2.36706 z"
       inkscape:connector-curvature="0" />
  </g>
</svg>
